# .PCD v0.7 - Point Cloud Data file format
VERSION 0.7
FIELDS x y z
SIZE 4 4 4
TYPE F F F
COUNT 1 1 1
WIDTH 30
HEIGHT 1
VIEWPOINT 0 0 0 1 0 0 0
POINTS 30
DATA ascii
2.1478446 0 0
2.1410332 0.0093485788 0
2.1408763 0.018696142 0
2.1435676 0.028080359 0
2.1325986 0.037250549 0
2.1471157 0.046882838 0
1.1835457 0.31736118 0
1.1693465 0.31903309 0
1.1753325 0.32618681 0
1.1537461 0.32562828 0
1.1537925 0.33108729 0
1.1470672 0.33458516 0
1.1415578 0.33839363 0
1.1396046 0.34323484 0
1.1342163 0.34702075 0
1.1351894 0.3527464 0
1.1255207 0.35513827 0
1.1369781 0.36421975 0
1.1381145 0.37007082 0
1.142454 0.37700558 0
1.1475072 0.3842372 0
1.1382737 0.3866809 0
1.1585642 0.39922464 0
1.150102 0.40193522 0
1.1584322 0.41053107 0
2.1933732 -0.038301315 0
2.1617076 -0.028307348 0
2.1671054 -0.018914532 0
2.1486092 -0.0093710814 0
2.1454031 1.0561236e-05 0
